<svg width="24" height="24" viewBox="0 0 24 24" fill="none" xmlns="http://www.w3.org/2000/svg">
<path d="M19.092 11.0042L9.0089 0.802932C8.36954 0.155804 7.27593 0.614126 7.27593 1.52933C7.27593 1.96027 7.35425 2.38832 7.50946 2.79044L8.19154 4.57184H6.40303C6.17662 4.57184 5.99293 4.75776 5.99293 4.98692C5.99293 5.21608 6.17662 5.40201 6.40303 5.40201H11.3969C11.6233 5.40201 11.807 5.58793 11.807 5.81709C11.807 6.04625 11.6233 6.23218 11.3969 6.23218H8.82521L9.77642 8.71836H12.4435C12.6699 8.71836 12.8536 8.90428 12.8536 9.13344C12.8536 9.36261 12.6699 9.54853 12.4435 9.54853H5.6284C5.40198 9.54853 5.21829 9.73445 5.21829 9.96361C5.21829 10.1928 5.40198 10.3787 5.6284 10.3787H10.4115L11.0309 11.9987L7.51231 21.1925C7.3856 21.5233 7.30912 21.8711 7.28449 22.2241C7.27794 22.294 7.27412 22.3633 7.27344 22.4317V22.4706C7.27344 23.3858 8.36705 23.8441 9.00641 23.197L19.0306 13.0568L19.0493 13.0436L19.092 13.0004C19.636 12.4498 19.636 11.5577 19.092 11.0071V11.0042Z" fill="white"/>
<path d="M7.07311 6.22953C7.29952 6.22953 7.48322 6.41545 7.48322 6.64461C7.48322 6.87377 7.29952 7.05969 7.07311 7.05969H4.9101C4.68369 7.05969 4.5 6.87377 4.5 6.64461C4.5 6.41545 4.68369 6.22953 4.9101 6.22953H7.07311Z" fill="white"/>
<path d="M7.34389 8.71693C7.11748 8.71693 6.93379 8.53101 6.93379 8.30185C6.93379 8.07268 7.11748 7.88676 7.34389 7.88676H8.34494C8.57135 7.88676 8.75504 8.07268 8.75504 8.30185C8.75504 8.53101 8.57135 8.71693 8.34494 8.71693H7.34389Z" fill="white"/>
</svg>
