<svg width="24" height="24" viewBox="0 0 24 24" fill="none" xmlns="http://www.w3.org/2000/svg">
<path fill-rule="evenodd" clip-rule="evenodd" d="M2.25 12C2.25 11.1716 2.92157 10.5 3.75 10.5H20.25C21.0784 10.5 21.75 11.1716 21.75 12C21.75 12.8284 21.0784 13.5 20.25 13.5H3.75C2.92157 13.5 2.25 12.8284 2.25 12Z" fill="#15151E"/>
<path fill-rule="evenodd" clip-rule="evenodd" d="M11.5607 4.18934C12.1464 4.77513 12.1464 5.72487 11.5607 6.31066L5.87132 12L11.5607 17.6893C12.1464 18.2751 12.1464 19.2249 11.5607 19.8107C10.9749 20.3964 10.0251 20.3964 9.43934 19.8107L2.68934 13.0607C2.10355 12.4749 2.10355 11.5251 2.68934 10.9393L9.43934 4.18934C10.0251 3.60355 10.9749 3.60355 11.5607 4.18934Z" fill="#15151E"/>
</svg>
