<svg xmlns="http://www.w3.org/2000/svg" version="1.1" xmlns:xlink="http://www.w3.org/1999/xlink" width="512" height="512" x="0" y="0" viewBox="0 0 64 64" style="enable-background:new 0 0 512 512" xml:space="preserve" class=""><g><path d="M23 12h2v2h-2zM27 12h2v2h-2zM31 12h2v2h-2zM37 6h2v2h-2z" fill="#00cc99" opacity="1" data-original="#000000" class=""></path><path d="M55.924 61.383a1 1 0 0 0-.217-1.09l-5.8-5.8-1.885-7.541.972-6.8a1.017 1.017 0 0 0-.006-.321l-2-10.972A3.164 3.164 0 0 0 44 26a2.961 2.961 0 0 0-.995.183V7a5.006 5.006 0 0 0-5-5H18a5.006 5.006 0 0 0-5 5v12.268a3.513 3.513 0 0 0-2.227.045 3.879 3.879 0 0 0-2.518 2.834 3.826 3.826 0 0 0 1.022 3.547l2.956 2.956a3.738 3.738 0 0 0-1.839 4.584A3.8 3.8 0 0 0 8.3 34.293a3.824 3.824 0 0 0 0 5.414l1.636 1.636a3.781 3.781 0 0 0-1.638.95 3.832 3.832 0 0 0 0 5.414l4 4a3.824 3.824 0 0 0 .7.542V53a5.006 5.006 0 0 0 5 5h9.586l3.707 3.707A1 1 0 0 0 32 62h23a1 1 0 0 0 .924-.617zM23 4h10v2H23zm-8 17V7a3 3 0 0 1 3-3h3v3a1 1 0 0 0 1 1h12a1 1 0 0 0 1-1V4h3a3 3 0 0 1 3 3v41H18.685a3.789 3.789 0 0 0-.97-1.707l-1.642-1.642A3.754 3.754 0 0 0 18.84 41a3.8 3.8 0 0 0-.216-1.209A3.733 3.733 0 0 0 21.278 38H26a1 1 0 0 0 1-1v-6a1 1 0 0 0-1-1h-6a1 1 0 0 0-1 1v.6l-2.29-2.289a3.855 3.855 0 0 0-1.71-.968zm6 12.66V32h4v4h-3.162A3.81 3.81 0 0 0 21 33.663zm-10.309-9.38a1.837 1.837 0 0 1-.483-1.7 1.887 1.887 0 0 1 1.255-1.387 1.419 1.419 0 0 1 .486-.084 1.833 1.833 0 0 1 1.051.349v5.131zm2.026 6.447a1.912 1.912 0 0 1 1.3-.527 1.825 1.825 0 0 1 1.289.527L19.3 34.72a1.851 1.851 0 0 1 .544 1.3 1.828 1.828 0 0 1-.123.648 1.73 1.73 0 0 1-.414.644 1.835 1.835 0 0 1-2.424.153l-4.162-4.153a1.815 1.815 0 0 1-.537-1.292 1.845 1.845 0 0 1 .533-1.293zm-3 7.566a1.83 1.83 0 0 1 1.3-3.123 1.82 1.82 0 0 1 1.134.4l4.149 4.137a1.829 1.829 0 0 1-2.586 2.586zm4 12-4-4a1.829 1.829 0 0 1 2.583-2.586l4 4a1.829 1.829 0 0 1-2.586 2.586zM18 56a3 3 0 0 1-3-3v-.175h.008A3.772 3.772 0 0 0 18.685 50H41v3a3 3 0 0 1-3 3zm14.414 4-2-2H38a5.006 5.006 0 0 0 5-5V28.994A1 1 0 0 1 44 28c.522 0 .925.586 1.016 1.179l1.971 10.841-.977 6.838a1.013 1.013 0 0 0 .02.384l2 8a1 1 0 0 0 .263.465L52.586 60z" fill="#00cc99" opacity="1" data-original="#000000" class=""></path><path d="M26 52h4v2h-4zM20 28h6a1 1 0 0 0 1-1v-6a1 1 0 0 0-1-1h-6a1 1 0 0 0-1 1v6a1 1 0 0 0 1 1zm1-6h4v4h-4zM29 27a1 1 0 0 0 1 1h6a1 1 0 0 0 1-1v-6a1 1 0 0 0-1-1h-6a1 1 0 0 0-1 1zm2-5h4v4h-4zM36 30h-6a1 1 0 0 0-1 1v6a1 1 0 0 0 1 1h6a1 1 0 0 0 1-1v-6a1 1 0 0 0-1-1zm-1 6h-4v-4h4zM23 44h2v2h-2zM27 44h2v2h-2zM31 44h2v2h-2z" fill="#00cc99" opacity="1" data-original="#000000" class=""></path></g></svg>