<svg width="24" height="24" viewBox="0 0 24 24" fill="none" xmlns="http://www.w3.org/2000/svg">
<path fill-rule="evenodd" clip-rule="evenodd" d="M3.56025 3.55002C2.13679 4.97164 2.0953 6.95 2.01231 10.9067C2.00438 11.285 2 11.6516 2 12C2 12.3484 2.00438 12.715 2.01231 13.0933C2.0953 17.05 2.13679 19.0284 3.56025 20.45C4.9837 21.8716 6.96651 21.9106 10.9321 21.9887C11.3015 21.996 11.6594 22 12 22C12.3406 22 12.6985 21.996 13.0679 21.9887C17.0335 21.9106 19.0163 21.8716 20.4398 20.45C21.8632 19.0284 21.9047 17.05 21.9877 13.0933C21.9956 12.715 22 12.3484 22 12C22 11.6516 21.9956 11.285 21.9877 10.9067C21.9047 6.95 21.8632 4.97164 20.4398 3.55002C19.0163 2.12839 17.0335 2.08935 13.0679 2.01127C12.6985 2.004 12.3406 2 12 2C11.6594 2 11.3015 2.004 10.9321 2.01127C6.96651 2.08935 4.9837 2.12839 3.56025 3.55002ZM9.29657 5.71783C9.2191 5.69829 9.12937 5.69989 8.94992 5.70309C8.73744 5.70687 8.52515 5.71528 8.31364 5.73327C7.91487 5.76719 7.53654 5.84091 7.17999 6.03149C6.69159 6.29255 6.29157 6.69256 6.03052 7.18096C5.83994 7.53752 5.76621 7.91585 5.73229 8.31461C5.7143 8.52613 5.7059 8.73841 5.70211 8.9509C5.69891 9.13035 5.69732 9.22007 5.71685 9.29755C5.76925 9.5054 5.93474 9.67387 6.14163 9.72996C6.21874 9.75087 6.31246 9.75087 6.49989 9.75087C6.68558 9.75087 6.77843 9.75087 6.85388 9.7309C7.0611 9.67606 7.2188 9.52125 7.27747 9.31508C7.29883 9.24 7.30061 9.14363 7.30417 8.95088C7.30777 8.75638 7.31438 8.59314 7.32654 8.45022C7.35166 8.15487 7.39602 8.02046 7.44159 7.9352C7.55347 7.72588 7.72491 7.55445 7.93422 7.44257C8.01948 7.39699 8.15389 7.35264 8.44924 7.32751C8.59217 7.31536 8.7554 7.30874 8.94991 7.30515C9.14265 7.30159 9.23903 7.2998 9.3141 7.27844C9.52027 7.21978 9.67508 7.06208 9.72993 6.85486C9.7499 6.7794 9.7499 6.68656 9.7499 6.50087C9.7499 6.31344 9.7499 6.21972 9.72899 6.14261C9.67289 5.93572 9.50442 5.77023 9.29657 5.71783ZM15.0499 7.30515C15.2444 7.30874 15.4076 7.31536 15.5506 7.32751C15.8459 7.35264 15.9803 7.39699 16.0656 7.44257C16.2749 7.55445 16.4463 7.72588 16.5582 7.9352C16.6038 8.02046 16.6481 8.15487 16.6733 8.45022C16.6854 8.59314 16.692 8.75638 16.6956 8.95089C16.6992 9.14363 16.701 9.24 16.7223 9.31507C16.781 9.52125 16.9387 9.67606 17.1459 9.7309C17.2214 9.75087 17.3142 9.75087 17.4999 9.75087C17.6873 9.75087 17.781 9.75087 17.8582 9.72997C18.065 9.67387 18.2305 9.5054 18.2829 9.29755C18.3025 9.22007 18.3009 9.13035 18.2977 8.95089C18.2939 8.73841 18.2855 8.52612 18.2675 8.31461C18.2336 7.91585 18.1599 7.53752 17.9693 7.18096C17.7082 6.69256 17.3082 6.29255 16.8198 6.03149C16.4633 5.84091 16.0849 5.76719 15.6862 5.73327C15.4746 5.71528 15.2624 5.70687 15.0499 5.70309C14.8704 5.69989 14.7807 5.69829 14.7032 5.71783C14.4954 5.77023 14.3269 5.93572 14.2708 6.14261C14.2499 6.21972 14.2499 6.31344 14.2499 6.50087C14.2499 6.68656 14.2499 6.7794 14.2699 6.85486C14.3247 7.06208 14.4795 7.21978 14.6857 7.27844C14.7608 7.2998 14.8571 7.30159 15.0499 7.30515ZM5.71685 14.7042C5.69732 14.7817 5.69891 14.8714 5.70211 15.0509C5.7059 15.2633 5.7143 15.4756 5.73229 15.6871C5.76621 16.0859 5.83994 16.4642 6.03052 16.8208C6.29157 17.3092 6.69159 17.7092 7.17999 17.9703C7.53654 18.1608 7.91487 18.2346 8.31364 18.2685C8.52515 18.2865 8.73743 18.2949 8.94991 18.2987C9.12937 18.3019 9.2191 18.3035 9.29657 18.2839C9.50443 18.2315 9.67289 18.066 9.72899 17.8591C9.7499 17.782 9.7499 17.6883 9.7499 17.5009C9.7499 17.3152 9.7499 17.2223 9.72993 17.1469C9.67509 16.9397 9.52027 16.782 9.3141 16.7233C9.23902 16.7019 9.14265 16.7002 8.94991 16.6966C8.7554 16.693 8.59217 16.6864 8.44924 16.6742C8.15389 16.6491 8.01948 16.6048 7.93422 16.5592C7.72491 16.4473 7.55347 16.2759 7.44159 16.0665C7.39602 15.9813 7.35166 15.8469 7.32654 15.5515C7.31438 15.4086 7.30777 15.2454 7.30417 15.0509C7.30061 14.8581 7.29883 14.7617 7.27747 14.6867C7.2188 14.4805 7.0611 14.3257 6.85388 14.2708C6.77843 14.2509 6.68558 14.2509 6.49989 14.2509C6.31246 14.2509 6.21874 14.2509 6.14163 14.2718C5.93474 14.3279 5.76925 14.4963 5.71685 14.7042ZM16.6956 15.0509C16.692 15.2454 16.6854 15.4086 16.6733 15.5515C16.6481 15.8469 16.6038 15.9813 16.5582 16.0665C16.4463 16.2759 16.2749 16.4473 16.0656 16.5592C15.9803 16.6048 15.8459 16.6491 15.5506 16.6742C15.4076 16.6864 15.2444 16.693 15.0499 16.6966C14.8571 16.7002 14.7608 16.7019 14.6857 16.7233C14.4795 16.782 14.3247 16.9397 14.2699 17.1469C14.2499 17.2223 14.2499 17.3152 14.2499 17.5009C14.2499 17.6883 14.2499 17.782 14.2708 17.8591C14.3269 18.066 14.4954 18.2315 14.7032 18.2839C14.7807 18.3035 14.8704 18.3019 15.0499 18.2987C15.2624 18.2949 15.4746 18.2865 15.6862 18.2685C16.0849 18.2346 16.4633 18.1608 16.8198 17.9703C17.3082 17.7092 17.7082 17.3092 17.9693 16.8208C18.1599 16.4642 18.2336 16.0859 18.2675 15.6871C18.2855 15.4756 18.2939 15.2633 18.2977 15.0509C18.3009 14.8714 18.3025 14.7817 18.2829 14.7042C18.2305 14.4963 18.065 14.3279 17.8582 14.2718C17.781 14.2509 17.6873 14.2509 17.4999 14.2509C17.3142 14.2509 17.2214 14.2509 17.1459 14.2708C16.9387 14.3257 16.781 14.4805 16.7223 14.6867C16.701 14.7617 16.6992 14.8581 16.6956 15.0509Z" fill="#494950"/>
</svg>
