<svg width="24" height="24" viewBox="0 0 24 24" fill="none" xmlns="http://www.w3.org/2000/svg">
<path d="M7.11071 4.98934C6.52492 4.40355 5.57518 4.40355 4.98939 4.98934C4.4036 5.57513 4.4036 6.52487 4.98939 7.11066L9.87848 11.9997L4.98939 16.8888C4.4036 17.4746 4.4036 18.4244 4.98939 19.0102C5.57518 19.5959 6.52492 19.5959 7.11071 19.0102L11.9998 14.1211L16.8889 19.0102C17.4747 19.5959 18.4244 19.5959 19.0102 19.0102C19.596 18.4244 19.596 17.4746 19.0102 16.8888L14.1211 11.9997L19.0102 7.11066C19.596 6.52487 19.596 5.57513 19.0102 4.98934C18.4244 4.40355 17.4747 4.40355 16.8889 4.98934L11.9998 9.87843L7.11071 4.98934Z" fill="white"/>
</svg>
