<svg width="24" height="24" viewBox="0 0 24 24" fill="none" xmlns="http://www.w3.org/2000/svg">
<path d="M2.19995 4C2.19995 3.55817 2.55812 3.2 2.99995 3.2H7.49995C7.94178 3.2 8.29995 3.55817 8.29995 4C8.29995 4.44182 7.94178 4.8 7.49995 4.8H3.79995V8.5C3.79995 8.94182 3.44178 9.3 2.99995 9.3C2.55812 9.3 2.19995 8.94182 2.19995 8.5V4Z" fill="#15151E"/>
<path d="M2.19995 20C2.19995 20.4419 2.55812 20.8 2.99995 20.8H7.49995C7.94178 20.8 8.29995 20.4419 8.29995 20C8.29995 19.5582 7.94178 19.2 7.49995 19.2H3.79995V15.5C3.79995 15.0582 3.44178 14.7 2.99995 14.7C2.55812 14.7 2.19995 15.0582 2.19995 15.5V20Z" fill="#15151E"/>
<path d="M21 3.2C21.4419 3.2 21.8 3.55817 21.8 4V8.5C21.8 8.94182 21.4419 9.3 21 9.3C20.5582 9.3 20.2001 8.94182 20.2001 8.5V4.8H16.5C16.0582 4.8 15.7001 4.44182 15.7001 4C15.7001 3.55817 16.0582 3.2 16.5 3.2H21Z" fill="#15151E"/>
<path d="M21.8 20C21.8 20.4419 21.4419 20.8 21 20.8H16.5C16.0582 20.8 15.7001 20.4419 15.7001 20C15.7001 19.5582 16.0582 19.2 16.5 19.2H20.2001V15.5C20.2001 15.0582 20.5582 14.7 21 14.7C21.4419 14.7 21.8 15.0582 21.8 15.5V20Z" fill="#15151E"/>
<path d="M8.79995 8.5C8.79995 8.05817 8.44178 7.7 7.99995 7.7C7.55812 7.7 7.19995 8.05817 7.19995 8.5V15.5C7.19995 15.9418 7.55812 16.3 7.99995 16.3C8.44178 16.3 8.79995 15.9418 8.79995 15.5V8.5Z" fill="#15151E"/>
<path d="M12 7.7C12.4418 7.7 12.7999 8.05817 12.7999 8.5V15.5C12.7999 15.9418 12.4418 16.3 12 16.3C11.5581 16.3 11.2 15.9418 11.2 15.5V8.5C11.2 8.05817 11.5581 7.7 12 7.7Z" fill="#15151E"/>
<path d="M16.7999 8.5C16.7999 8.05817 16.4418 7.7 16 7.7C15.5581 7.7 15.2 8.05817 15.2 8.5V15.5C15.2 15.9418 15.5581 16.3 16 16.3C16.4418 16.3 16.7999 15.9418 16.7999 15.5V8.5Z" fill="#15151E"/>
</svg>
