<svg width="24" height="24" viewBox="0 0 24 24" fill="none" xmlns="http://www.w3.org/2000/svg">
<path fill-rule="evenodd" clip-rule="evenodd" d="M7 0.800049C5.34314 0.800049 4.00078 2.14319 4.00078 3.80005V15.0002C4.00078 15.5525 4.44849 16.0002 5.00078 16.0002H8.40234C9.72782 16.0002 10.8023 17.0748 10.8023 18.4002V21.8C10.8023 22.3523 11.2501 22.8 11.8023 22.8H17.4008C19.0576 22.8 20.4008 21.4569 20.4008 19.8V3.80005C20.4008 2.14319 19.0576 0.800049 17.4008 0.800049H7ZM12.2 9.30005C13.5807 9.30005 14.7 10.4193 14.7 11.8C14.7 13.1808 13.5807 14.3 12.2 14.3C10.8193 14.3 9.7 13.1808 9.7 11.8C9.7 10.4193 10.8193 9.30005 12.2 9.30005Z" fill="#494950"/>
<path d="M1.2 18.7999C1.2 18.1371 1.73726 17.5999 2.4 17.5999H8C8.66274 17.5999 9.2 18.1371 9.2 18.7999C9.2 19.4626 8.66274 19.9999 8 19.9999H2.4C1.73726 19.9999 1.2 19.4626 1.2 18.7999Z" fill="#494950"/>
<path d="M1.2 22.7999C1.2 22.1371 1.73726 21.5999 2.4 21.5999H8C8.66274 21.5999 9.2 22.1371 9.2 22.7999C9.2 23.4626 8.66274 23.9999 8 23.9999H2.4C1.73726 23.9999 1.2 23.4626 1.2 22.7999Z" fill="#494950"/>
</svg>
